<svg xmlns="http://www.w3.org/2000/svg" width="130" height="21" viewBox="0 0 130 21">
    <defs>
        <linearGradient id="a" x1="73.659%" x2="44.446%" y1="0%" y2="100%">
            <stop offset="0%" stop-color="#FF5C84"/>
            <stop offset="100%" stop-color="#F5315F"/>
        </linearGradient>
    </defs>
    <g fill="none" fill-rule="evenodd">
        <text fill="#333" font-family="AppleSDGothicNeo-Heavy, Apple SD Gothic Neo" font-size="20.16" font-weight="600" transform="translate(0 -2)">
            <tspan x="36.96" y="18">Jetstream</tspan>
        </text>
        <path fill="#F73C68" d="M23.762 12.123H15.63a1.28 1.28 0 0 0-1.257 1.042l-.455 2.403a.213.213 0 0 0 .21.253h7.304c.525 0 1.005-.297 1.24-.767l1.298-2.595a.232.232 0 0 0-.208-.336"/>
        <path fill="#FB4B75" d="M26.728 6.346H16.72a1.28 1.28 0 0 0-1.256 1.044l-.5 2.654h9.44c.524 0 1.003-.297 1.237-.767l1.293-2.595a.232.232 0 0 0-.206-.336"/>
        <path fill="#FE5981" d="M29.73.569H17.809c-.612 0-1.137.436-1.25 1.04l-.454 2.404a.214.214 0 0 0 .21.253h11.09c.525 0 1.004-.296 1.238-.766L29.937.905a.232.232 0 0 0-.207-.336"/>
        <path fill="url(#a)" d="M7.591.314L5.342 11.83a1.695 1.695 0 0 1-1.662 1.373H1.525a.388.388 0 0 0-.38.314L.007 19.34a.389.389 0 0 0 .381.464h4.675a6.913 6.913 0 0 0 6.778-5.6L14.525.465A.39.39 0 0 0 14.144 0H7.972a.388.388 0 0 0-.38.314" transform="translate(0 .52)"/>
    </g>
</svg>
